<svg xmlns="http://www.w3.org/2000/svg" width="32px" height="32px" viewBox="0 0 32 32"><path d="M16,0.188c-4.368,0-8.297,1.784-11.159,4.653L2.37,2.37l-0.865,8.359l7.906-1.317L6.694,6.694 C9.076,4.305,12.352,2.823,16,2.823c7.294,0,13.177,5.884,13.177,13.177c0,7.294-5.883,13.177-13.177,13.177h-1.318v2.636H16h1.317 V31.73c8.1-0.677,14.495-7.461,14.495-15.73C31.813,7.283,24.717,0.188,16,0.188z M14.682,8.094v1.565 c-1.526,0.554-2.635,2.013-2.635,3.706c0,1.098,0.607,2.031,1.276,2.594c0.67,0.563,1.44,0.903,2.1,1.235s1.246,0.641,1.565,0.905 c0.319,0.266,0.329,0.335,0.329,0.536c0,0.69-0.594,1.317-1.317,1.317c-0.745,0-1.318-0.574-1.318-1.317h-2.635 c0,1.702,1.112,3.155,2.635,3.706v1.564h2.635v-1.564c1.527-0.557,2.636-2.018,2.636-3.706c0-1.094-0.648-1.999-1.317-2.553 c-0.67-0.554-1.401-0.904-2.06-1.235c-0.657-0.332-1.205-0.638-1.523-0.906c-0.318-0.268-0.371-0.354-0.371-0.576 c0-0.709,0.587-1.318,1.318-1.318c0.744,0,1.317,0.573,1.317,1.318h2.636c0-1.703-1.111-3.155-2.636-3.706V8.094H14.682z M1.505,14.682c-0.728,0-1.318,0.59-1.318,1.318c0,0.729,0.59,1.317,1.318,1.317c0.728,0,1.317-0.589,1.317-1.317 C2.823,15.272,2.233,14.682,1.505,14.682z M2.617,20.241c-0.171-0.001-0.326,0.013-0.494,0.083c-0.672,0.277-1.02,1.058-0.741,1.729 c0.278,0.672,1.057,0.979,1.729,0.7c0.672-0.277,0.979-1.058,0.7-1.729C3.602,20.52,3.13,20.245,2.617,20.241z M5.747,24.936 c-0.337,0-0.69,0.113-0.947,0.371c-0.515,0.515-0.515,1.379,0,1.894c0.515,0.515,1.379,0.515,1.895,0 c0.515-0.515,0.515-1.379,0-1.894C6.437,25.049,6.084,24.936,5.747,24.936z M10.441,28.065c-0.514,0.004-0.985,0.319-1.194,0.823 c-0.278,0.672,0.028,1.452,0.7,1.729c0.672,0.278,1.451-0.069,1.729-0.741s-0.028-1.41-0.7-1.688 C10.808,28.119,10.612,28.064,10.441,28.065z"/></svg>