<?xml version="1.0" encoding="utf-8"?>
<!-- Generator: Adobe Illustrator 26.0.3, SVG Export Plug-In . SVG Version: 6.00 Build 0)  -->
<svg version="1.1" id="Capa_1" xmlns="http://www.w3.org/2000/svg" xmlns:xlink="http://www.w3.org/1999/xlink" x="0px" y="0px"
	 viewBox="0 0 422.1 422.1" style="enable-background:new 0 0 422.1 422.1;" xml:space="preserve">
<path d="M392.1,189.2c-7.9-10.4-18.2-16.3-29.3-16.9V150c0-82.2-66.9-149.1-149.1-149.1C131.4,0.9,64.5,67.8,64.5,150v22.2h-3.2
	c-23.7,0-43,20.7-43,46l0,64c-0.3,11.6,3.9,22.6,11.9,31c8,8.4,18.8,13.2,30.4,13.5l38.6,0l0.1,0c3.4-0.2,6.5-1.6,8.8-4.1
	c2.3-2.5,3.5-5.8,3.3-9.1c0-0.2,0-0.4,0-0.6V187.5c0-7.5-4.6-15.3-12.2-15.3h-8.3V150c0-67.7,55.1-122.7,122.7-122.7
	c67.7,0,122.7,55.1,122.7,122.7v22.2H328c-7.6,0-12.2,7.8-12.2,15.3V313c-0.6,6.9,4.4,13.1,11.3,13.8c0.3,0,0.5,0,0.8,0.1l6,0
	c-14.3,17.1-35.6,27.4-57.9,27.9c-3.3-13-11.2-24.2-22.5-31.7c-12-7.9-26.3-10.7-40.4-7.8c-24.7,5-42.8,27-43,52.3
	c0.3,29.6,24.6,53.7,54.3,53.7c14.8-0.2,28.6-6.2,39-16.8c6.4-6.6,10.8-14.8,12.7-23.8c31.9-0.6,62.2-16.1,81.5-41.7l9-13.3
	c22.7-2.1,37.2-17,37.2-38.2v-64.1C403.8,211.7,399.4,198.9,392.1,189.2z M377.4,223.4v64.1c0,11.7-11.6,13-16.5,13h-18.6V198.6
	h18.6C369.8,198.6,377.4,212.2,377.4,223.4z M61.3,198.6H85v101.8l-23.7,0c-9.4-0.2-16.9-8.1-16.6-17.5c0-0.2,0-0.3,0-0.5l0-64.3
	C44.7,207.4,52.2,198.6,61.3,198.6z M244.4,386L244.4,386c-5.2,5.6-12.4,8.8-19.9,8.9c-15.1-0.2-27.4-12.3-27.9-27.3
	c0-15.1,12.2-27.3,27.3-27.3c0,0,0,0,0,0c15.1,0,27.3,12.2,27.3,27.3l0,0.2C251.6,374.5,249.1,381.1,244.4,386z"/>
</svg>
